<svg width="1441" height="711" viewBox="0 0 1441 711" fill="none" xmlns="http://www.w3.org/2000/svg">
<mask id="mask0" style="mask-type:alpha" maskUnits="userSpaceOnUse" x="0" y="0" width="1441" height="711">
<rect width="1441" height="711" fill="url(#paint0_linear)"/>
</mask>
<g mask="url(#mask0)">
<g opacity="0.5">
<path d="M173.083 571.054C165.26 571.054 154.503 563.225 143.258 554.906C132.99 547.566 122.234 539.737 115.389 539.737C108.544 539.737 97.787 544.63 87.0304 549.034C75.7849 553.927 65.0283 558.821 57.6943 558.821C50.3603 558.821 40.0927 554.906 28.8472 550.502C18.0906 546.098 7.33402 541.694 0 541.694V538.269C8.31189 538.269 19.5574 542.673 30.314 547.077C40.5816 550.991 50.8492 555.395 57.6943 555.395C64.5394 555.395 75.296 550.502 86.0526 546.098C97.2981 541.205 108.055 536.311 115.389 536.311C123.212 536.311 133.968 544.141 145.214 552.459C155.481 559.799 166.238 567.629 173.083 567.629C178.461 567.629 186.773 553.927 194.596 540.226C205.842 521.142 217.576 501.079 230.777 501.079C243.001 501.079 255.224 505.972 265.981 510.376C274.293 513.802 282.115 516.738 288.472 516.738C293.85 516.738 299.717 509.887 306.073 502.058C315.852 490.314 328.564 476.123 346.166 476.123C363.279 476.123 375.502 481.016 385.281 484.931C392.126 487.378 397.993 489.824 403.86 489.824C410.705 489.824 421.462 485.91 432.218 482.484C442.975 478.57 454.221 474.655 461.555 474.655C466.933 474.655 472.8 471.23 479.645 467.315C489.424 461.443 502.136 454.103 519.249 454.103C537.828 454.103 549.563 489.824 559.831 521.142C565.698 538.758 572.054 558.821 576.943 558.821C583.299 558.821 594.056 549.034 604.813 539.737C616.058 529.461 626.815 519.674 634.638 519.674C646.372 519.674 655.173 480.038 663.485 445.295C672.286 406.637 680.109 373.363 692.332 373.363C705.533 373.363 717.757 378.256 728.513 382.171C736.825 385.596 744.159 388.043 750.026 388.043C755.893 388.043 764.205 380.213 773.006 371.405C783.763 360.64 795.986 348.896 807.721 348.896C818.966 348.896 831.189 351.343 841.946 353.3C850.747 355.257 859.059 356.725 865.904 356.725C870.304 356.725 877.638 331.28 883.017 310.728C893.284 272.56 905.019 229.009 923.598 229.009C942.178 229.009 953.912 261.305 964.18 290.176C970.047 306.324 976.403 323.94 981.292 323.94C988.138 323.94 993.516 340.088 1001.83 367.98C1011.61 399.787 1023.34 439.423 1038.99 439.423C1054.63 439.423 1066.86 386.575 1076.15 348.407C1084.95 311.217 1089.84 292.133 1096.68 292.133C1102.06 292.133 1109.88 273.049 1117.22 255.922C1128.46 229.009 1140.2 201.606 1154.38 201.606C1167.09 201.606 1178.33 207.478 1188.11 212.371C1196.42 216.775 1204.25 220.69 1212.07 220.69C1217.94 220.69 1223.32 191.819 1228.2 166.374C1237.01 120.376 1247.27 68.5069 1269.76 68.5069C1291.28 68.5069 1301.06 82.6976 1308.88 93.9523C1314.75 102.271 1319.64 109.611 1327.46 109.611C1337.73 109.611 1351.42 72.9109 1361.68 45.9975C1372.44 16.6374 1379.29 0 1385.64 0V3.42535C1381.24 3.42535 1372.44 27.8921 1365.11 46.9762C1352.88 79.2723 1340.66 113.036 1327.95 113.036C1318.17 113.036 1312.3 104.718 1306.43 95.9097C1298.61 84.655 1289.81 71.9323 1270.25 71.9323C1250.7 71.9323 1240.43 124.78 1232.12 166.863C1225.27 203.563 1220.87 224.115 1212.56 224.115C1204.25 224.115 1195.93 219.711 1187.13 215.307C1177.36 210.414 1167.09 205.031 1154.86 205.031C1143.13 205.031 1130.91 233.902 1120.64 257.39C1110.37 281.368 1104.02 295.558 1096.68 295.558C1092.28 295.558 1084.95 326.386 1079.57 349.385C1069.3 393.425 1057.57 443.338 1038.99 443.338C1020.9 443.338 1009.16 404.191 998.405 369.448C992.538 349.875 985.693 327.854 981.292 327.854C974.447 327.854 969.558 314.642 960.757 291.644C951.467 265.22 939.244 232.923 923.109 232.923C906.974 232.923 894.751 278.921 885.95 312.196C877.149 344.003 872.749 360.64 865.415 360.64C858.57 360.64 850.258 359.172 840.968 357.215C830.212 355.257 818.477 352.811 807.721 352.811C797.453 352.811 785.718 364.065 775.451 374.341C765.672 383.639 757.36 391.957 750.026 391.957C743.181 391.957 735.847 389.021 727.046 385.596C716.779 381.681 704.555 377.277 692.332 377.277C682.553 377.277 674.241 413.977 666.418 446.763C657.129 486.399 648.817 524.078 634.149 524.078C627.792 524.078 617.036 533.865 606.279 543.162C595.034 553.438 584.277 563.225 576.454 563.225C569.609 563.225 564.231 548.545 555.919 523.099C546.14 494.228 534.406 458.018 518.76 458.018C502.136 458.018 490.891 464.868 480.623 470.74C473.289 475.144 467.422 478.57 460.577 478.57C453.732 478.57 442.975 482.484 432.218 485.91C421.462 489.824 410.216 493.739 402.882 493.739C396.526 493.739 390.17 491.292 383.325 488.356C373.546 484.442 361.812 480.038 345.188 480.038C329.053 480.038 317.808 493.25 308.029 504.994C300.695 513.313 294.339 520.653 287.494 520.653C280.649 520.653 272.337 517.227 264.025 513.802C253.757 509.398 241.534 504.994 229.799 504.994C218.554 504.994 206.819 525.057 196.552 542.673C188.24 558.331 180.906 571.054 173.083 571.054Z" fill="#0094FF"/>
</g>
<g opacity="0.5">
<path d="M514.052 608C500.028 608 487.939 586.973 477.3 568.419C469.562 554.813 462.309 542.445 456.989 542.445C448.768 542.445 438.613 522.654 427.007 499.153C417.335 479.981 406.212 457.717 399.926 457.717C395.09 457.717 388.803 470.704 382.517 484.31C372.845 505.338 360.272 531.312 342.863 531.312C325.937 531.312 313.848 526.365 304.176 522.654C297.406 520.18 291.603 517.707 285.8 517.707C278.546 517.707 270.808 508.43 261.62 497.916C251.465 485.547 239.859 471.941 228.253 471.941C216.163 471.941 204.557 472.56 193.918 473.178C185.697 473.797 177.476 473.797 171.19 473.797C163.936 473.797 152.813 472.56 142.658 470.704C132.019 469.468 121.38 467.612 114.126 467.612C107.356 467.612 96.7173 472.56 86.0784 476.889C75.4395 481.218 64.317 486.166 57.0632 486.166C49.8094 486.166 39.1705 478.744 28.5316 470.704C17.8927 463.283 7.25379 455.243 0 455.243V450.914C8.22097 450.914 19.3435 458.954 29.9824 466.994C40.1377 474.415 50.293 481.837 57.0632 481.837C63.8334 481.837 74.4723 476.889 85.1112 472.56C95.7501 468.231 106.873 463.283 114.126 463.283C121.38 463.283 132.503 464.52 142.658 466.375C153.297 467.612 163.936 469.468 171.19 469.468C177.476 469.468 185.697 468.849 193.918 468.849C204.557 468.231 216.163 467.612 228.253 467.612C240.826 467.612 252.916 481.837 263.555 494.824C271.776 504.719 279.513 513.377 285.316 513.377C291.603 513.377 297.406 515.851 304.659 518.325C314.331 522.036 325.937 526.365 342.379 526.365C357.854 526.365 369.46 501.627 379.132 481.837C386.869 465.757 392.672 453.388 399.442 453.388C407.663 453.388 417.819 473.178 429.425 496.679C439.096 515.851 450.219 538.115 456.505 538.115C463.759 538.115 471.013 551.103 479.718 565.946C489.873 583.881 501.479 603.671 513.569 603.671C525.658 603.671 537.264 584.499 547.42 567.182C556.124 552.958 563.378 539.971 570.632 539.971C576.918 539.971 587.557 527.602 598.196 515.851C609.319 502.864 619.958 490.495 627.695 490.495C640.752 490.495 649.456 493.587 658.161 496.679C666.382 499.771 673.636 502.245 684.758 502.245C696.848 502.245 708.454 479.363 718.609 458.954C727.314 441.637 734.568 426.795 741.821 426.795C748.592 426.795 757.296 431.742 766.484 436.69C776.64 442.256 788.729 449.059 798.885 449.059C808.556 449.059 820.646 398.346 830.318 358.147C841.44 311.763 848.21 285.17 855.948 285.17C862.718 285.17 868.521 293.21 875.775 302.486C884.963 314.855 896.569 329.698 913.011 329.698C931.387 329.698 943.477 367.424 953.149 398.346C958.952 416.899 965.238 436.071 970.074 436.071C975.394 436.071 981.197 428.65 987.483 419.373C997.155 405.767 1009.73 389.688 1027.14 389.688C1043.1 389.688 1054.7 363.713 1063.89 342.686C1071.14 325.987 1077.43 313 1084.2 313C1090.97 313 1098.22 317.948 1106.93 323.514C1117.08 330.317 1128.69 337.738 1141.26 337.738C1152.39 337.738 1163.03 301.25 1172.21 269.09C1182.85 233.22 1189.62 210.956 1198.33 210.956C1204.13 210.956 1209.45 196.732 1214.77 181.889C1222.99 158.388 1233.63 128.702 1255.87 128.702C1275.22 128.702 1283.92 110.149 1291.66 94.0692C1297.46 81.7002 1303.27 69.3312 1312.94 69.3312C1323.58 69.3312 1336.15 53.87 1346.79 39.6457C1355.98 27.8952 1363.71 18 1370 18V22.3291C1365.16 22.3291 1357.43 32.2243 1349.21 42.7379C1337.6 56.9623 1325.03 73.6604 1312.94 73.6604C1305.2 73.6604 1300.36 84.174 1294.56 95.9245C1286.82 112.004 1277.15 132.413 1255.87 132.413C1236.05 132.413 1225.89 160.862 1218.15 183.126C1212.35 199.824 1207.03 214.667 1198.81 214.667C1192.04 214.667 1183.34 243.734 1176.08 269.709C1165.93 304.96 1155.29 341.449 1141.75 341.449C1128.69 341.449 1116.6 333.409 1105.96 326.606C1097.74 321.04 1090.49 316.711 1084.68 316.711C1079.85 316.711 1073.56 330.317 1067.27 344.541C1057.6 366.805 1045.03 394.017 1027.62 394.017C1011.66 394.017 1000.54 409.478 990.385 422.465C983.131 432.361 976.844 440.4 970.558 440.4C963.304 440.4 957.984 423.084 950.247 399.583C941.059 370.516 928.969 334.027 913.011 334.027C895.118 334.027 883.029 317.948 873.357 304.96C867.07 296.302 861.267 288.881 855.948 288.881C850.628 288.881 841.44 327.843 833.703 358.765C820.162 415.663 810.007 452.769 798.885 452.769C787.762 452.769 775.672 445.967 765.034 440.4C756.329 435.453 748.108 431.124 741.821 431.124C736.502 431.124 728.765 446.585 721.511 461.428C710.872 482.455 698.782 506.574 684.758 506.574C673.152 506.574 664.931 503.482 657.194 501.008C648.973 497.916 640.268 495.442 627.695 495.442C621.408 495.442 610.77 507.811 600.131 519.562C589.008 532.549 578.369 544.918 570.632 544.918C565.312 544.918 558.059 557.287 550.321 570.275C540.166 587.591 527.593 608 514.052 608Z" fill="#F15131"/>
</g>
</g>
<defs>
<linearGradient id="paint0_linear" x1="1441" y1="356" x2="-4.88672e-06" y2="356" gradientUnits="userSpaceOnUse">
<stop offset="0.0416667" stop-color="#C4C4C4" stop-opacity="0"/>
<stop offset="0.203125" stop-color="#C4C4C4" stop-opacity="0.928882"/>
<stop offset="0.859375" stop-color="#C4C4C4"/>
<stop offset="0.984375" stop-color="#C4C4C4" stop-opacity="0"/>
</linearGradient>
</defs>
</svg>
